<svg xmlns="http://www.w3.org/2000/svg" width="486" height="513" viewBox="0 0 486 513" version="1.1"><path d="M 95.500 37.725 C 80.801 39.154, 58.792 50.434, 45.888 63.153 C 37.497 71.423, 32.753 78.462, 28.965 88.263 C 20.798 109.396, 20.749 110.533, 21.579 258.771 C 21.971 328.770, 22.475 385.858, 22.699 385.634 C 22.923 385.411, 23.293 325.439, 23.521 252.364 C 23.749 179.289, 24.217 117.250, 24.561 114.500 C 26.068 102.437, 32.094 84.071, 36.373 78.500 C 38.063 76.300, 39.908 73.893, 40.473 73.152 C 43.062 69.752, 53.803 59.115, 56.500 57.278 C 64.281 51.977, 77.090 45.281, 84.500 42.639 C 90.431 40.525, 91.463 40.498, 174 40.315 C 219.925 40.213, 280.784 39.837, 309.241 39.479 C 360.192 38.838, 361.088 38.861, 367.882 40.964 C 371.677 42.138, 377.361 44.652, 380.512 46.550 C 383.664 48.447, 386.664 50, 387.180 50 C 390.324 50, 408.517 67.613, 413.497 75.479 C 422.404 89.547, 426.129 99.835, 428.010 115.567 C 428.867 122.736, 429.206 161.118, 429.230 253.500 C 429.264 384.996, 428.979 396.062, 425.315 405.500 C 422.926 411.652, 416.054 425.116, 413.915 427.836 C 412.862 429.174, 412 430.689, 412 431.202 C 412 431.714, 410.762 433.768, 409.250 435.766 C 407.738 437.764, 407.034 439.076, 407.686 438.680 C 409.838 437.375, 417.828 424.534, 422.460 414.936 C 430.863 397.524, 430.283 408.859, 430.732 253.279 C 431.174 100.261, 431.368 105.570, 424.792 90.500 C 415.819 69.936, 400.299 53.958, 379.137 43.500 C 365.158 36.591, 374.368 36.982, 230.040 37.168 C 158.243 37.261, 97.700 37.511, 95.500 37.725 M 334.304 94.487 C 345.845 97.452, 356.258 107.972, 359.065 119.500 C 359.610 121.737, 359.821 121.949, 359.898 120.333 C 360.194 114.053, 350.973 101.413, 342.453 96.420 C 340.190 95.093, 336.125 93.780, 333.419 93.502 L 328.500 92.995 334.304 94.487 M 314.832 95.828 C 305.497 99.172, 295.858 110.938, 296.079 118.718 C 296.170 121.921, 296.576 121.058, 297.455 115.797 C 298.186 111.416, 305.327 102.197, 310.434 99.041 C 312.348 97.858, 316.971 96.282, 320.707 95.539 C 326.349 94.417, 326.822 94.185, 323.500 94.171 C 321.300 94.162, 317.399 94.908, 314.832 95.828 M 119 108.472 C 116.525 109.208, 113.375 110.152, 112 110.571 C 108.133 111.748, 101.975 115.895, 101.275 117.793 C 100.929 118.732, 100.283 119.747, 99.839 120.049 C 99.003 120.618, 98.646 131.611, 99.320 136 C 99.532 137.375, 99.984 140.300, 100.326 142.500 C 100.667 144.700, 101.198 182.950, 101.506 227.500 C 102.037 304.286, 102.506 316.971, 105.150 326 C 107.685 334.657, 116.198 353, 117.681 353 C 117.961 353, 116.866 350.637, 115.248 347.750 C 110.596 339.452, 106.297 327.197, 104.987 318.500 C 103.202 306.640, 103.132 124.509, 104.912 120.214 C 107.364 114.293, 120.616 108, 130.629 108 C 140.389 108, 150.993 117.445, 156.453 131 C 158.066 135.006, 158.266 138.902, 158.271 166.500 L 158.278 197.500 159.105 174 C 160.048 147.223, 159.180 133.780, 156.058 126.807 C 153.286 120.616, 145.004 111.665, 139.651 109.073 C 134.650 106.652, 125.974 106.400, 119 108.472 M 360.232 126 C 360.232 127.925, 360.438 128.713, 360.689 127.750 C 360.941 126.787, 360.941 125.213, 360.689 124.250 C 360.438 123.287, 360.232 124.075, 360.232 126 M 296.067 131.730 C 295.889 137.643, 301.562 146.525, 308.500 151.192 C 310.216 152.347, 309.708 151.655, 307.312 149.574 C 302.232 145.162, 298.999 140.118, 297.362 134.049 C 296.687 131.547, 296.105 130.503, 296.067 131.730 M 359.069 132.500 C 359.020 133.600, 357.920 136.777, 356.624 139.560 C 354.320 144.509, 349.790 148.915, 342.067 153.719 C 340.105 154.939, 338.874 155.952, 339.331 155.969 C 340.933 156.029, 350.943 148.829, 353.833 145.537 C 357.098 141.818, 360.498 133.854, 359.687 131.823 C 359.370 131.030, 359.122 131.302, 359.069 132.500 M 315 155.549 C 315 156.282, 321.122 159.126, 322.022 158.811 C 322.509 158.640, 321.128 157.746, 318.954 156.824 C 316.779 155.903, 315 155.329, 315 155.549 M 324.750 194.723 C 326.538 194.945, 329.462 194.945, 331.250 194.723 C 333.038 194.502, 331.575 194.320, 328 194.320 C 324.425 194.320, 322.962 194.502, 324.750 194.723 M 311.526 197.563 C 302.291 202.379, 298.945 206.034, 299.044 211.200 C 299.076 212.881, 299.464 212.445, 300.483 209.583 C 302.221 204.707, 305.084 201.851, 311.500 198.591 C 314.250 197.194, 316.050 196.043, 315.500 196.032 C 314.950 196.021, 313.162 196.710, 311.526 197.563 M 340.500 197.877 C 345.531 201.012, 349.216 205.665, 350.659 210.704 L 352.033 215.500 351.621 211.320 C 351.374 208.813, 350.124 205.718, 348.498 203.586 C 345.929 200.218, 340.296 195.996, 338.382 196.004 C 337.897 196.006, 338.850 196.849, 340.500 197.877 M 298.286 218.500 C 298.294 221.250, 298.488 222.256, 298.718 220.736 C 298.947 219.216, 298.941 216.966, 298.704 215.736 C 298.467 214.506, 298.279 215.750, 298.286 218.500 M 352.434 240.500 C 352.433 254.250, 352.574 260.014, 352.747 253.308 C 352.919 246.603, 352.920 235.353, 352.748 228.308 C 352.576 221.264, 352.434 226.750, 352.434 240.500 M 297.435 264 C 297.435 278.025, 297.575 283.762, 297.747 276.750 C 297.919 269.738, 297.919 258.262, 297.747 251.250 C 297.575 244.238, 297.435 249.975, 297.435 264 M 352.232 269 C 352.232 270.925, 352.438 271.712, 352.689 270.750 C 352.941 269.788, 352.941 268.212, 352.689 267.250 C 352.438 266.288, 352.232 267.075, 352.232 269 M 351.395 298.500 C 351.396 306.200, 351.553 309.218, 351.743 305.206 C 351.934 301.195, 351.932 294.895, 351.741 291.206 C 351.549 287.518, 351.393 290.800, 351.395 298.500 M 296.831 306 C 296.465 309.025, 295.895 312.625, 295.563 314 C 295.231 315.375, 295.662 314.700, 296.520 312.500 C 297.378 310.300, 297.948 306.700, 297.787 304.500 C 297.510 300.702, 297.461 300.778, 296.831 306 M 350.232 320 C 350.232 321.925, 350.438 322.712, 350.689 321.750 C 350.941 320.788, 350.941 319.212, 350.689 318.250 C 350.438 317.288, 350.232 318.075, 350.232 320 M 164 322.383 C 164 323.456, 166.975 329, 167.551 329 C 167.826 329, 167.308 327.538, 166.399 325.750 C 164.542 322.100, 164 321.339, 164 322.383 M 285.467 331.750 C 283.943 333.813, 281.077 337.299, 279.098 339.499 L 275.500 343.497 279.156 340.144 C 282.596 336.988, 289.646 328, 288.681 328 C 288.437 328, 286.991 329.688, 285.467 331.750 M 176 341.500 C 177.292 342.875, 178.574 344, 178.849 344 C 179.124 344, 178.292 342.875, 177 341.500 C 175.708 340.125, 174.426 339, 174.151 339 C 173.876 339, 174.708 340.125, 176 341.500 M 208.269 358.693 C 209.242 358.947, 210.592 358.930, 211.269 358.656 C 211.946 358.382, 211.150 358.175, 209.500 358.195 C 207.850 358.215, 207.296 358.439, 208.269 358.693 M 233.269 358.693 C 234.242 358.947, 235.592 358.930, 236.269 358.656 C 236.946 358.382, 236.150 358.175, 234.500 358.195 C 232.850 358.215, 232.296 358.439, 233.269 358.693 M 217.280 359.736 C 219.909 359.943, 223.959 359.940, 226.280 359.731 C 228.601 359.521, 226.450 359.352, 221.500 359.355 C 216.550 359.358, 214.651 359.530, 217.280 359.736 M 326.946 366.750 L 323.500 370.500 327.250 367.054 C 329.313 365.158, 331 363.471, 331 363.304 C 331 362.540, 330.154 363.260, 326.946 366.750 M 134 373.500 C 137.543 377.075, 140.667 380, 140.942 380 C 141.217 380, 138.543 377.075, 135 373.500 C 131.457 369.925, 128.333 367, 128.058 367 C 127.783 367, 130.457 369.925, 134 373.500 M 23.133 392.614 C 22.707 408.992, 32.294 429.835, 47.459 445.500 C 51.186 449.350, 52.415 450.407, 50.189 447.850 C 34.492 429.810, 25.916 412.505, 24.078 395.159 C 23.361 388.394, 23.250 388.097, 23.133 392.614 M 223.750 407.706 C 224.988 407.944, 227.012 407.944, 228.250 407.706 C 229.488 407.467, 228.475 407.272, 226 407.272 C 223.525 407.272, 222.512 407.467, 223.750 407.706 M 384.861 458.059 L 382.500 460.119 385.250 458.444 C 386.762 457.523, 388 456.597, 388 456.385 C 388 455.604, 387.165 456.050, 384.861 458.059 M 74 464.500 C 75.375 465.286, 76.950 465.929, 77.500 465.929 C 78.050 465.929, 77.375 465.286, 76 464.500 C 74.625 463.714, 73.050 463.071, 72.500 463.071 C 71.950 463.071, 72.625 463.714, 74 464.500 M 299.312 471.748 C 308.009 471.915, 321.959 471.915, 330.312 471.748 C 338.666 471.581, 331.550 471.444, 314.500 471.445 C 297.450 471.445, 290.616 471.582, 299.312 471.748 M 144.314 472.749 C 153.561 472.914, 168.411 472.913, 177.314 472.748 C 186.216 472.582, 178.650 472.447, 160.500 472.448 C 142.350 472.448, 135.066 472.583, 144.314 472.749" stroke="none" fill="#72acdf" fill-rule="evenodd"/><path d="M 303.931 39.758 C 303.144 39.900, 254.800 40.125, 196.500 40.258 C 91.044 40.499, 90.469 40.511, 84.500 42.639 C 77.090 45.281, 64.281 51.977, 56.500 57.278 C 53.803 59.115, 43.062 69.752, 40.473 73.152 C 39.908 73.893, 38.063 76.300, 36.373 78.500 C 31.983 84.214, 25.932 102.851, 24.521 115 C 24.170 118.025, 23.797 182.600, 23.693 258.500 C 23.517 387.408, 23.620 396.953, 25.267 403.376 C 29.458 419.726, 39.077 436.169, 51.963 449.012 C 59.696 456.719, 68.927 462.195, 82 466.831 C 95.441 471.597, 92.694 471.512, 226.500 471.300 C 348.187 471.106, 352.760 471.032, 360.083 469.133 C 364.254 468.052, 369.879 466.148, 372.583 464.902 C 379.785 461.583, 392.712 452.999, 398.860 447.453 C 404.137 442.692, 412 432.953, 412 431.178 C 412 430.678, 412.862 429.174, 413.915 427.836 C 416.054 425.116, 422.926 411.652, 425.315 405.500 C 428.979 396.062, 429.264 384.996, 429.230 253.500 C 429.206 161.118, 428.867 122.736, 428.010 115.567 C 426.129 99.835, 422.404 89.547, 413.497 75.479 C 408.517 67.613, 390.324 50, 387.180 50 C 386.664 50, 383.664 48.447, 380.512 46.550 C 377.361 44.652, 371.672 42.137, 367.871 40.960 C 361.379 38.951, 359.279 38.842, 333.161 39.161 C 317.872 39.347, 304.718 39.616, 303.931 39.758 M 323.500 93.979 C 315.431 95.061, 310.833 96.888, 306.837 100.601 C 297.675 109.115, 296 112.877, 296 124.948 C 296 139.633, 299.143 145.067, 312.878 154.131 C 319.770 158.679, 320.678 159, 326.649 159 C 331.765 159, 334.313 158.380, 339.406 155.897 C 353.976 148.793, 360.348 139.674, 360.295 126 C 360.258 116.700, 357.935 110.983, 351.316 103.907 C 342.632 94.622, 336.099 92.291, 323.500 93.979 M 119 108.472 C 116.525 109.208, 113.375 110.152, 112 110.571 C 108.133 111.748, 101.975 115.895, 101.275 117.793 C 100.929 118.732, 100.283 119.747, 99.839 120.049 C 99.003 120.618, 98.646 131.611, 99.320 136 C 99.532 137.375, 99.984 140.300, 100.326 142.500 C 100.667 144.700, 101.198 182.950, 101.506 227.500 C 102.037 304.286, 102.506 316.971, 105.150 326 C 106.612 330.993, 111.959 343.977, 113.785 346.968 C 127.947 370.167, 144.101 385.207, 166.500 396.043 C 183.871 404.447, 198.088 407.240, 223.500 407.239 C 265.418 407.238, 289.177 399.697, 314.685 378.296 C 334.925 361.316, 344.243 348.346, 348.665 331 C 350.787 322.677, 351.190 318.093, 351.920 294 C 353.114 254.577, 353.171 219.424, 352.053 212.700 C 349.688 198.479, 335.170 191.023, 318.273 195.351 C 310.548 197.331, 302.417 202.293, 300.350 206.291 C 298.172 210.503, 296.905 238.886, 297.172 277.500 C 297.398 310.254, 297.033 313.101, 291.348 322.892 C 287.575 329.391, 280.751 338.133, 276.623 341.758 C 264.953 352.005, 242.404 359.042, 221.500 358.961 C 193.649 358.854, 177.196 348.285, 164.874 322.587 C 158.301 308.880, 158.036 306.243, 158.027 254.500 C 158.022 229.200, 158.464 195.450, 159.007 179.500 C 160.110 147.151, 159.388 134.249, 156.057 126.807 C 153.287 120.617, 145.005 111.665, 139.651 109.073 C 134.650 106.652, 125.974 106.400, 119 108.472" stroke="none" fill="#2e89d5" fill-rule="evenodd"/></svg>